<svg viewBox="0 0 1584 396" xmlns="http://www.w3.org/2000/svg">
  <!-- Background -->
  <rect width="1584" height="396" fill="#FF2D20" />
  
  <!-- Laravel logo - positioned to the left -->
  <g transform="translate(300, 198) scale(0.8)">
    <!-- Laravel Logo Shield -->
    <path d="M-80,-80 L80,-80 L80,80 L-80,80 Z" fill="#FF2D20" stroke="white" stroke-width="5" />
    
    <!-- Laravel "L" Symbol -->
    <path d="M-40,-40 L-40,20 L10,20 L10,40 L-60,40 L-60,-40 Z M20,-40 L20,40 L60,40 L60,20 L40,20 L40,-20 L60,-20 L60,-40 Z" fill="white" />
  </g>
  
  <!-- Text section positioned to the right -->
  <g transform="translate(550, 0)">
    <!-- Title - Much Larger -->
    <text x="375" y="130" font-family="Arial, sans-serif" font-size="60" font-weight="bold" fill="#ffffff" text-anchor="middle">Laravel Developer</text>
    
    <!-- Skills - Much Larger -->
    <text x="375" y="200" font-family="Arial, sans-serif" font-size="34" fill="#ffffff" text-anchor="middle" font-weight="bold">
      PHP • MySQL • Blade
    </text>
    
    <!-- Contact information - Much Larger -->
    <g font-family="Arial, sans-serif" font-size="28" fill="#ffffff" font-weight="500">
      <text x="375" y="270" text-anchor="middle">Phone: +201094066795</text>
      <text x="375" y="320" text-anchor="middle">Email: nagiyasserahmed@gmail.com</text>
    </g>
  </g>
  
  <!-- Very subtle code pattern in background -->
  <g opacity="0.05" fill="#ffffff">
    <text x="200" y="60" font-family="monospace" font-size="12">Route::get('/home', function () {</text>
    <text x="200" y="80" font-family="monospace" font-size="12">    return view('welcome');</text>
    <text x="200" y="100" font-family="monospace" font-size="12">});</text>
    <text x="1100" y="320" font-family="monospace" font-size="12">php artisan serve</text>
    <text x="1100" y="340" font-family="monospace" font-size="12">php artisan migrate</text>
  </g>
</svg>